<svg id="Layer_12" data-name="Layer 12" xmlns="http://www.w3.org/2000/svg" viewBox="0 0 1000 1000"><defs><style>.cls-1{fill:#436ba8;}.cls-2{fill:#264776;}</style></defs><path class="cls-1" d="M561.29,587.7,931.36,374a121.42,121.42,0,0,0,60.7-105.15V167.44C992.06,74,890.88,15.56,809.94,62.3L561.29,205.85a121.4,121.4,0,0,1-121.41,0L191.23,62.3C110.29,15.56,9.11,74,9.11,167.44V268.89A121.41,121.41,0,0,0,69.82,374L439.88,587.7A121.4,121.4,0,0,0,561.29,587.7Z"/><ellipse class="cls-2" cx="500.59" cy="824.65" rx="130.19" ry="129.5"/><path class="cls-2" d="M529.53,217.54C426.61,210.55,193.84,62.3,193.84,62.3,112.88,15.74,9,76,9.11,167.44c0,0-3.62,70.33,1.86,122.6,6.78,64.75,146.57,67.52,227.9,46.61C329.85,313.26,559.55,219.58,529.53,217.54Z"/></svg>