<svg width="45" height="45" viewBox="0 0 45 45" fill="none" xmlns="http://www.w3.org/2000/svg">
<path d="M41.25 31.3876V8.7563C41.25 6.5063 39.4125 4.83755 37.1813 5.02505H37.0688C33.1313 5.36255 27.15 7.3688 23.8125 9.4688L23.4938 9.67505C22.95 10.0125 22.05 10.0125 21.5063 9.67505L21.0375 9.3938C17.7 7.31255 11.7375 5.32505 7.8 5.0063C5.56875 4.8188 3.75 6.5063 3.75 8.73755V31.3876C3.75 33.1876 5.2125 34.875 7.0125 35.1L7.55625 35.1751C11.625 35.7188 17.9063 37.7813 21.5063 39.7501L21.5813 39.7875C22.0875 40.0688 22.8938 40.0688 23.3813 39.7875C26.9813 37.8 33.2813 35.7188 37.3688 35.1751L37.9875 35.1C39.7875 34.875 41.25 33.1876 41.25 31.3876Z" stroke="white" stroke-width="1.5" stroke-linecap="round" stroke-linejoin="round"/>
<path d="M22.5 10.2937V38.4187" stroke="white" stroke-width="1.5" stroke-linecap="round" stroke-linejoin="round"/>
<path d="M14.5312 15.9187H10.3125" stroke="white" stroke-width="1.5" stroke-linecap="round" stroke-linejoin="round"/>
<path d="M15.9375 21.5437H10.3125" stroke="white" stroke-width="1.5" stroke-linecap="round" stroke-linejoin="round"/>
</svg>
