<svg width="45" height="45" viewBox="0 0 45 45" fill="none" xmlns="http://www.w3.org/2000/svg">
<path d="M5.64355 21.0375V29.4562C5.64355 37.875 9.01856 41.25 17.4373 41.25H27.5436C35.9623 41.25 39.3373 37.875 39.3373 29.4562V21.0375" stroke="white" stroke-width="1.5" stroke-linecap="round" stroke-linejoin="round"/>
<path d="M22.4999 22.5C25.9312 22.5 28.4624 19.7063 28.1249 16.275L26.8874 3.75H18.1312L16.8749 16.275C16.5374 19.7063 19.0687 22.5 22.4999 22.5Z" stroke="white" stroke-width="1.5" stroke-linecap="round" stroke-linejoin="round"/>
<path d="M34.3312 22.5C38.1187 22.5 40.8938 19.425 40.5188 15.6563L39.9937 10.5C39.3187 5.625 37.4438 3.75 32.5313 3.75H26.8125L28.125 16.8938C28.4437 19.9875 31.2375 22.5 34.3312 22.5Z" stroke="white" stroke-width="1.5" stroke-linecap="round" stroke-linejoin="round"/>
<path d="M10.575 22.5C13.6687 22.5 16.4625 19.9875 16.7625 16.8938L17.175 12.75L18.075 3.75H12.3562C7.44371 3.75 5.56871 5.625 4.89371 10.5L4.38746 15.6563C4.01246 19.425 6.78746 22.5 10.575 22.5Z" stroke="white" stroke-width="1.5" stroke-linecap="round" stroke-linejoin="round"/>
<path d="M22.5 31.875C19.3688 31.875 17.8125 33.4313 17.8125 36.5625V41.25H27.1875V36.5625C27.1875 33.4313 25.6312 31.875 22.5 31.875Z" stroke="white" stroke-width="1.5" stroke-linecap="round" stroke-linejoin="round"/>
</svg>
