<svg xmlns="http://www.w3.org/2000/svg" viewBox="0 0 527.44 116.44"><defs><style>.cls-1{fill:#fff;}</style></defs><g id="Layer_2" data-name="Layer 2"><g id="Layer_12" data-name="Layer 12"><path class="cls-1" d="M70.94,69.46l47.43-27.39a15.56,15.56,0,0,0,7.79-13.48v-13A15.57,15.57,0,0,0,102.81,2.11L70.94,20.51a15.58,15.58,0,0,1-15.57,0L23.5,2.11A15.57,15.57,0,0,0,.15,15.59v13A15.58,15.58,0,0,0,7.93,42.07L55.37,69.46A15.58,15.58,0,0,0,70.94,69.46Z"/><ellipse class="cls-1" cx="63.15" cy="99.83" rx="16.69" ry="16.6"/><path class="cls-1" d="M66.86,22c-13.19-.9-43-19.9-43-19.9C13.45-3.86.13,3.86.15,15.59A123.71,123.71,0,0,0,.39,31.3c.87,8.3,18.79,8.66,29.21,6C41.27,34.28,70.71,22.27,66.86,22Z"/><path class="cls-1" d="M204.18,35.77,188.84,65.32V80H178.07V65.32L162.74,35.77H175l8.51,18,8.51-18Z"/><path class="cls-1" d="M233.94,46.82a15.73,15.73,0,0,1,6.45,6.23,18.63,18.63,0,0,1,2.35,9.51,18.7,18.7,0,0,1-2.35,9.52,15.79,15.79,0,0,1-6.45,6.23,21.14,21.14,0,0,1-18.62,0,15.86,15.86,0,0,1-6.48-6.23,18.8,18.8,0,0,1-2.35-9.52,18.73,18.73,0,0,1,2.35-9.51,15.8,15.8,0,0,1,6.48-6.23,21.14,21.14,0,0,1,18.62,0Zm-14.46,9.33c-1.4,1.48-2.09,3.62-2.09,6.41s.69,4.93,2.09,6.39a6.88,6.88,0,0,0,5.17,2.19A6.77,6.77,0,0,0,229.78,69q2.07-2.19,2.07-6.39t-2.07-6.41a6.71,6.71,0,0,0-5.13-2.23A6.81,6.81,0,0,0,219.48,56.15Z"/><path class="cls-1" d="M283.05,45.1V80H272.29V73.7a11.67,11.67,0,0,1-4.48,4.89,13,13,0,0,1-6.92,1.81,12.07,12.07,0,0,1-9.54-4q-3.54-4-3.54-11V45.1h10.64v19a7.79,7.79,0,0,0,1.85,5.54,6.47,6.47,0,0,0,5,2,6.6,6.6,0,0,0,5.14-2.07,8.46,8.46,0,0,0,1.88-5.88V45.1Z"/><path class="cls-1" d="M310.22,70.82V80H305.4q-6.13,0-9.55-3t-3.41-10V54.11h-4.69v-9h4.69V36.52h10.71V45.1h7v9h-7v13A3.93,3.93,0,0,0,304,70a4.06,4.06,0,0,0,2.85.81Z"/><path class="cls-1" d="M347.94,48.73q3.53,4,3.53,11V80h-10.7V61a7.7,7.7,0,0,0-1.85-5.48,6.39,6.39,0,0,0-4.91-2,6.73,6.73,0,0,0-5.17,2.06,8.38,8.38,0,0,0-1.91,5.89V80h-10.7V33.7h10.7V51.48a11.62,11.62,0,0,1,4.48-4.94,13.13,13.13,0,0,1,7-1.82A12.1,12.1,0,0,1,347.94,48.73Z"/><path class="cls-1" d="M414,48.7q3.69,4,3.69,11V80H407V61a7.12,7.12,0,0,0-1.78-5.17A6.44,6.44,0,0,0,400.37,54a6.55,6.55,0,0,0-5,2,7.75,7.75,0,0,0-1.85,5.54V80H382.77V61A7.19,7.19,0,0,0,381,55.83,6.32,6.32,0,0,0,376.2,54a6.7,6.7,0,0,0-5.07,1.94,7.69,7.69,0,0,0-1.88,5.57V80h-10.7V45.1h10.7V51a10.46,10.46,0,0,1,4.23-4.63,12.79,12.79,0,0,1,6.67-1.69,13.46,13.46,0,0,1,7.07,1.85,11.58,11.58,0,0,1,4.63,5.29,14,14,0,0,1,5-5.2,13.09,13.09,0,0,1,7-1.94Q410.26,44.72,414,48.7Z"/><path class="cls-1" d="M448.1,48a14.42,14.42,0,0,1,5,8.76h-10a5.54,5.54,0,0,0-2-3.35,6,6,0,0,0-3.85-1.22,4.24,4.24,0,0,0-2.76.78,2.76,2.76,0,0,0-.94,2.22,2.63,2.63,0,0,0,1.72,2.45,27.72,27.72,0,0,0,5.42,1.62,55.7,55.7,0,0,1,6.57,1.91,10.89,10.89,0,0,1,4.45,3.16,8.78,8.78,0,0,1,1.88,5.89A9.06,9.06,0,0,1,452,75.52a10.79,10.79,0,0,1-4.7,3.63A18.24,18.24,0,0,1,440,80.47q-7.08,0-11.33-3.13a13.25,13.25,0,0,1-5.2-9h10.33a4.69,4.69,0,0,0,1.91,3.45A7.23,7.23,0,0,0,440,73a4,4,0,0,0,2.76-.85,2.85,2.85,0,0,0,.93-2.22,2.67,2.67,0,0,0-1.72-2.6,32,32,0,0,0-5.6-1.66A43.47,43.47,0,0,1,430,63.94a10.57,10.57,0,0,1-4.32-3,8.4,8.4,0,0,1-1.82-5.73,9.33,9.33,0,0,1,3.57-7.6q3.57-2.91,10.08-2.91T448.1,48Z"/><path class="cls-1" d="M468.72,69.32V80H457.64V69.32Z"/><path class="cls-1" d="M475.05,31.23a7.5,7.5,0,0,1,9.26,0,5.21,5.21,0,0,1,1.75,4,5.14,5.14,0,0,1-1.75,4,7.5,7.5,0,0,1-9.26,0,5.15,5.15,0,0,1-1.76-4A5.22,5.22,0,0,1,475.05,31.23ZM485,45.1V80H474.3V45.1Z"/><path class="cls-1" d="M512.54,46.47a10.57,10.57,0,0,1,4.2,5V33.7h10.7V80h-10.7V73.7a10.57,10.57,0,0,1-4.2,5,12.63,12.63,0,0,1-6.88,1.82,14.13,14.13,0,0,1-7.73-2.16,14.81,14.81,0,0,1-5.39-6.23,21.7,21.7,0,0,1-2-9.52,21.57,21.57,0,0,1,2-9.54,14.78,14.78,0,0,1,5.39-6.2,14.13,14.13,0,0,1,7.73-2.16A12.63,12.63,0,0,1,512.54,46.47Zm-9,9.83a8.82,8.82,0,0,0-2.1,6.26,8.82,8.82,0,0,0,2.1,6.26,7.87,7.87,0,0,0,11.08-.06,8.72,8.72,0,0,0,2.16-6.2,8.71,8.71,0,0,0-2.16-6.23,7.3,7.3,0,0,0-5.54-2.28A7.21,7.21,0,0,0,503.56,56.3Z"/></g></g></svg>