<svg width="50" height="50" viewBox="0 0 50 50" fill="none" xmlns="http://www.w3.org/2000/svg">
<path d="M43.7503 33.3327H14.5837C14.0311 33.3327 13.5012 33.1132 13.1105 32.7225C12.7198 32.3318 12.5003 31.8019 12.5003 31.2493C12.5003 30.6968 12.7198 30.1669 13.1105 29.7762C13.5012 29.3855 14.0311 29.166 14.5837 29.166H36.3337C37.7267 29.1661 39.0798 28.7008 40.1782 27.844C41.2765 26.9872 42.0572 25.788 42.3962 24.4368L45.8337 10.916C45.9117 10.6085 45.9185 10.2873 45.8535 9.97679C45.7885 9.66629 45.6534 9.37473 45.4587 9.12435C45.2561 8.86754 44.9958 8.66205 44.699 8.52451C44.4022 8.38698 44.0772 8.32126 43.7503 8.33268H14.0837C13.6538 7.11695 12.8585 6.06393 11.8067 5.31797C10.7549 4.57201 9.49813 4.16964 8.20866 4.16602H6.25033C5.69779 4.16602 5.16789 4.38551 4.77719 4.77621C4.38649 5.16691 4.16699 5.69681 4.16699 6.24935C4.16699 6.80188 4.38649 7.33179 4.77719 7.72249C5.16789 8.11319 5.69779 8.33268 6.25033 8.33268H8.20866C8.68456 8.31882 9.15086 8.46838 9.52992 8.75646C9.90898 9.04454 10.1779 9.45377 10.292 9.91602L10.417 10.916L14.0212 24.9993C12.3636 25.0739 10.8035 25.804 9.68412 27.0288C8.56476 28.2537 7.97782 29.873 8.05241 31.5306C8.127 33.1882 8.85702 34.7483 10.0819 35.8676C11.3067 36.987 12.9261 37.5739 14.5837 37.4993H14.9587C14.616 38.4434 14.5059 39.4561 14.6377 40.4517C14.7694 41.4473 15.1392 42.3964 15.7156 43.2188C16.292 44.0412 17.0581 44.7126 17.949 45.1762C18.8399 45.6397 19.8294 45.8817 20.8337 45.8817C21.8379 45.8817 22.8274 45.6397 23.7183 45.1762C24.6093 44.7126 25.3753 44.0412 25.9517 43.2188C26.5281 42.3964 26.8979 41.4473 27.0296 40.4517C27.1614 39.4561 27.0513 38.4434 26.7087 37.4993H31.6253C31.2827 38.4434 31.1726 39.4561 31.3043 40.4517C31.4361 41.4473 31.8058 42.3964 32.3822 43.2188C32.9586 44.0412 33.7247 44.7126 34.6156 45.1762C35.5066 45.6397 36.496 45.8817 37.5003 45.8817C38.5046 45.8817 39.4941 45.6397 40.385 45.1762C41.2759 44.7126 42.042 44.0412 42.6184 43.2188C43.1948 42.3964 43.5645 41.4473 43.6963 40.4517C43.8281 39.4561 43.718 38.4434 43.3753 37.4993H43.7503C44.3029 37.4993 44.8328 37.2799 45.2235 36.8892C45.6142 36.4985 45.8337 35.9685 45.8337 35.416C45.8337 34.8635 45.6142 34.3336 45.2235 33.9429C44.8328 33.5522 44.3029 33.3327 43.7503 33.3327ZM41.0837 12.4993L38.3545 23.416C38.2404 23.8783 37.9715 24.2875 37.5924 24.5756C37.2134 24.8637 36.7471 25.0132 36.2712 24.9993H18.292L15.167 12.4993H41.0837ZM20.8337 41.666C20.4216 41.666 20.0188 41.5438 19.6762 41.3149C19.3336 41.086 19.0666 40.7606 18.9089 40.3799C18.7512 39.9993 18.71 39.5804 18.7904 39.1762C18.8707 38.7721 19.0692 38.4009 19.3605 38.1095C19.6519 37.8182 20.0231 37.6198 20.4272 37.5394C20.8313 37.459 21.2502 37.5002 21.6309 37.6579C22.0116 37.8156 22.337 38.0826 22.5659 38.4252C22.7948 38.7678 22.917 39.1706 22.917 39.5827C22.917 40.1352 22.6975 40.6651 22.3068 41.0558C21.9161 41.4465 21.3862 41.666 20.8337 41.666ZM37.5003 41.666C37.0883 41.666 36.6855 41.5438 36.3429 41.3149C36.0003 41.086 35.7333 40.7606 35.5756 40.3799C35.4179 39.9993 35.3766 39.5804 35.457 39.1762C35.5374 38.7721 35.7358 38.4009 36.0272 38.1095C36.3185 37.8182 36.6898 37.6198 37.0939 37.5394C37.498 37.459 37.9169 37.5002 38.2976 37.6579C38.6783 37.8156 39.0036 38.0826 39.2326 38.4252C39.4615 38.7678 39.5837 39.1706 39.5837 39.5827C39.5837 40.1352 39.3642 40.6651 38.9735 41.0558C38.5828 41.4465 38.0529 41.666 37.5003 41.666Z" fill="white"/>
</svg>
